<svg width="66" height="60" viewBox="0 0 66 60" fill="none" xmlns="http://www.w3.org/2000/svg">
<g clip-path="url(#clip0_18_300)">
<path d="M23.7606 27.9742H27.5055L25.633 22.6538L23.7606 27.9742Z" fill="#BBBBBB"/>
<path d="M32.5102 0C14.5545 0 0 11.4755 0 25.633C0 34.7859 6.08628 42.8259 15.2391 47.3523C14.7421 49.0685 12.0381 58.3995 11.9319 59.1341C11.9319 59.1341 11.8662 59.6843 12.2226 59.8937C12.3418 59.9539 12.4721 59.989 12.6054 59.9971C12.7387 60.0052 12.8722 59.9859 12.9978 59.9406C14.0231 59.7968 24.8765 52.1851 26.7521 50.8753C28.6599 51.1402 30.584 51.2708 32.5102 51.266C50.4658 51.266 65.0203 39.7906 65.0203 25.633C65.0203 11.4755 50.4658 0 32.5102 0ZM16.4208 21.6536C16.3801 25.2798 16.452 29.0935 16.3926 32.6633C16.3739 33.8043 15.7174 34.145 14.8296 34.4701C14.7293 34.5056 14.6213 34.5132 14.517 34.492C13.5011 34.292 12.6915 33.9294 12.6665 32.6665C12.5946 29.0997 12.6883 25.2798 12.6383 21.6536C11.7787 21.6193 10.5533 21.688 9.75617 21.6536C8.64958 21.5817 7.88059 20.8784 7.92748 19.8312C7.97437 18.784 8.53392 18.0306 9.77493 18.0119C12.7071 17.9681 16.3395 17.9681 19.2716 18.0119C20.522 18.0306 21.0785 18.7871 21.116 19.8312C21.1535 20.8753 20.397 21.5817 19.2935 21.6536C18.5058 21.688 17.2835 21.6193 16.4208 21.6536ZM32.1757 34.2982C31.8007 34.4689 31.3935 34.5573 30.9816 34.5577C30.2001 34.5577 29.603 34.2451 29.4186 33.7293L28.4808 31.2973H22.7727L21.8349 33.7293C21.6536 34.2388 21.0566 34.5577 20.272 34.5577C19.8609 34.5577 19.4547 34.4692 19.081 34.2982C18.5621 34.0606 18.065 33.4042 18.6339 31.6349L23.1322 19.8249C23.3209 19.3047 23.6587 18.8517 24.1036 18.5225C24.5484 18.1934 25.0804 18.0027 25.633 17.9744C26.1852 18.0057 26.7162 18.198 27.1606 18.5273C27.6049 18.8567 27.9432 19.3088 28.1338 19.8281L32.6164 31.6318C33.1885 33.4042 32.6915 34.0731 32.1757 34.2982ZM41.6536 34.2982H35.6361C35.1701 34.3075 34.7194 34.1318 34.3826 33.8096C34.0457 33.4874 33.8502 33.0449 33.8387 32.5789V19.85C33.8587 19.3555 34.0691 18.888 34.426 18.5453C34.7829 18.2025 35.2585 18.0111 35.7534 18.0111C36.2482 18.0111 36.7238 18.2025 37.0807 18.5453C37.4376 18.888 37.648 19.3555 37.668 19.85V30.869H41.6536C41.8881 30.8549 42.1231 30.8888 42.3439 30.9689C42.5648 31.0489 42.767 31.1732 42.9381 31.3342C43.1091 31.4953 43.2454 31.6896 43.3386 31.9053C43.4317 32.1209 43.4798 32.3534 43.4798 32.5883C43.4798 32.8232 43.4317 33.0557 43.3386 33.2713C43.2454 33.487 43.1091 33.6813 42.9381 33.8424C42.767 34.0034 42.5648 34.1278 42.3439 34.2078C42.1231 34.2878 41.8881 34.3217 41.6536 34.3076V34.2982ZM56.3457 32.8853C56.2969 33.2553 56.1389 33.6023 55.8918 33.8819C55.6447 34.1616 55.3198 34.3612 54.9586 34.4552C54.5974 34.5491 54.2165 34.5332 53.8644 34.4095C53.5123 34.2858 53.2051 34.0598 52.9822 33.7606L48.5839 27.9369L47.9337 28.5871V32.679C47.9337 33.1764 47.7361 33.6535 47.3844 34.0052C47.0326 34.3569 46.5556 34.5545 46.0581 34.5545C45.5607 34.5545 45.0836 34.3569 44.7319 34.0052C44.3802 33.6535 44.1826 33.1764 44.1826 32.679V19.8625C44.1826 19.365 44.3802 18.888 44.7319 18.5362C45.0836 18.1845 45.5607 17.9869 46.0581 17.9869C46.5556 17.9869 47.0326 18.1845 47.3844 18.5362C47.7361 18.888 47.9337 19.365 47.9337 19.8625V23.8825L53.1666 18.6496C53.3036 18.5141 53.4662 18.4073 53.6449 18.3354C53.8237 18.2635 54.0149 18.2279 54.2076 18.2307C54.6759 18.243 55.1232 18.4279 55.4636 18.7498C55.804 19.0717 56.0135 19.508 56.0519 19.975C56.0687 20.1834 56.0409 20.3929 55.9703 20.5897C55.8997 20.7864 55.7879 20.9659 55.6424 21.116L51.3598 25.3892L55.9769 31.5067C56.2758 31.9035 56.4051 32.4027 56.3364 32.8947L56.3457 32.8853Z" fill="#BBBBBB"/>
</g>
<defs>
<clipPath id="clip0_18_300">
<rect width="65.0203" height="60" fill="white"/>
</clipPath>
</defs>
</svg>
