<svg width="60" height="60" viewBox="0 0 60 60" fill="none" xmlns="http://www.w3.org/2000/svg">
<g clip-path="url(#clip0_18_296)">
<path d="M60 11.3926C57.7925 12.3726 55.42 13.0326 52.93 13.3301C55.4725 11.8076 57.425 9.39512 58.3425 6.52012C55.965 7.93012 53.33 8.95512 50.525 9.50762C48.2825 7.11512 45.08 5.62012 41.54 5.62012C33.5925 5.62012 27.7525 13.0351 29.5475 20.7326C19.32 20.2201 10.25 15.3201 4.1775 7.87262C0.9525 13.4051 2.505 20.6426 7.985 24.3076C5.97 24.2426 4.07 23.6901 2.4125 22.7676C2.2775 28.4701 6.365 33.8051 12.285 34.9926C10.5525 35.4626 8.655 35.5726 6.725 35.2026C8.29 40.0926 12.835 43.6501 18.225 43.7501C13.05 47.8076 6.53 49.6201 0 48.8501C5.4475 52.3426 11.92 54.3801 18.87 54.3801C41.725 54.3801 54.6375 35.0776 53.8575 17.7651C56.2625 16.0276 58.35 13.8601 60 11.3926V11.3926Z" fill="#BBBBBB"/>
</g>
<defs>
<clipPath id="clip0_18_296">
<rect width="60" height="60" fill="white"/>
</clipPath>
</defs>
</svg>
