<svg width="28" height="28" viewBox="0 0 28 28" fill="none" xmlns="http://www.w3.org/2000/svg">
<path d="M5.77504 25.0833C5.30837 25.0833 4.90976 24.9181 4.57921 24.5875C4.24865 24.2569 4.08337 23.8583 4.08337 23.3917V9.04166C4.08337 8.59444 4.24865 8.20555 4.57921 7.87499C4.90976 7.54444 5.30837 7.37916 5.77504 7.37916H8.95421C8.95421 5.97916 9.42573 4.78819 10.3688 3.80624C11.3118 2.8243 12.4834 2.33333 13.8834 2.33333C15.2834 2.33333 16.4938 2.8243 17.5146 3.80624C18.5355 4.78819 19.0459 5.97916 19.0459 7.37916H22.225C22.6917 7.37916 23.0903 7.54444 23.4209 7.87499C23.7514 8.20555 23.9167 8.59444 23.9167 9.04166V23.3917C23.9167 23.8583 23.7514 24.2569 23.4209 24.5875C23.0903 24.9181 22.6917 25.0833 22.225 25.0833H5.77504ZM5.77504 23.7708H22.225C22.3223 23.7708 22.4098 23.7319 22.4875 23.6542C22.5653 23.5764 22.6042 23.4889 22.6042 23.3917V9.04166C22.6042 8.96388 22.5653 8.88611 22.4875 8.80833C22.4098 8.73055 22.3223 8.69166 22.225 8.69166H5.77504C5.67782 8.69166 5.59032 8.73055 5.51254 8.80833C5.43476 8.88611 5.39587 8.96388 5.39587 9.04166V23.3917C5.39587 23.4889 5.43476 23.5764 5.51254 23.6542C5.59032 23.7319 5.67782 23.7708 5.77504 23.7708ZM14 15.1083C15.4 15.1083 16.6105 14.6028 17.6313 13.5917C18.6521 12.5805 19.1625 11.375 19.1625 9.97499H17.8209C17.8209 11.0056 17.4417 11.9 16.6834 12.6583C15.925 13.4167 15.0306 13.7958 14 13.7958C12.9695 13.7958 12.075 13.4167 11.3167 12.6583C10.5584 11.9 10.1792 11.0056 10.1792 9.97499H8.86671C8.86671 11.375 9.37226 12.5805 10.3834 13.5917C11.3945 14.6028 12.6 15.1083 14 15.1083ZM10.2959 7.37916H17.7042C17.7042 6.32916 17.3445 5.44444 16.625 4.725C15.9056 4.00555 15.0306 3.64583 14 3.64583C12.9695 3.64583 12.0945 4.00555 11.375 4.725C10.6556 5.44444 10.2959 6.32916 10.2959 7.37916ZM5.39587 23.7708V8.69166V23.7708Z" fill="white"/>
</svg>
