<svg width="99" height="38" viewBox="0 0 99 38" fill="none" xmlns="http://www.w3.org/2000/svg">
<g clip-path="url(#clip0_18_83)">
<path d="M14 18.7C14 21.2 12 23.2 9.49998 23.2C6.99998 23.2 4.99998 21.2 4.99998 18.7C4.99998 16.2 6.99998 14.2 9.49998 14.2H14V18.7ZM19 0.199997H14V9.3C12.3 9.3 10.6 9.3 9.49998 9.3C4.29998 9.3 0.0999756 13.5 0.0999756 18.7C0.0999756 23.9 4.29998 28.1 9.49998 28.1C14.7 28.1 18.9 23.9 18.9 18.7C18.9 16.1 18.9 9.3 18.9 9.3L19 0.199997Z" fill="white"/>
<path d="M68.7 23.2C71.2 23.2 73.2 21.2 73.2 18.7C73.2 16.2 71.2 14.2 68.7 14.2C66.2 14.2 64.2 16.2 64.2 18.7C64.3 21.2 66.3 23.2 68.7 23.2ZM59.4 18.7C59.4 13.5 63.6 9.3 68.8 9.3C74 9.3 78.2 13.5 78.2 18.7C78.2 23.9 74 28.1 68.8 28.1C63.6 28.1 59.4 23.9 59.4 18.7Z" fill="white"/>
<path d="M93.9 18.7C93.9 16.3 91.9 14.3 89.5 14.3C87.1 14.3 85.1 16.3 85.1 18.7C85.1 19.9 85.1 27.7 85.1 27.7C82.6 27.7 80.2 27.7 80.2 27.7C80.2 27.7 80.2 21.3 80.2 18.7C80.2 13.5 84.4 9.3 89.6 9.3C94.8 9.3 99 13.5 99 18.7C99 21.3 99 27.7 99 27.7C99 27.7 96.6 27.7 94.1 27.7C93.9 27.7 93.9 19.9 93.9 18.7Z" fill="white"/>
<path d="M47.9 15.5C47.2 15 47.4 14.2 48.6 13.9C50.1 13.5 52.7 13.8 54.9 14.8L57.2 11.6C56.2 10.8 54 9.70001 50.8 9.50001C50.8 9.50001 45.4 8.80001 43.2 12.9C43.2 12.9 41.3 16.7 45.1 19.1C47.4 20.5 51.4 21.1 52.7 21.7C53.7 22.3 53.4 23.4 51.9 23.7C49.3 24.3 45.9 22.8 44.8 22L42.4 25.3C44 26.5 46 27.6 49.2 28.1C49.2 28.1 54.3 29 57.1 25.5C57.6 24.9 59.9 20.6 55.3 18.1C52.9 16.8 49.1 16.2 47.9 15.5Z" fill="white"/>
<path d="M24.9 31.3C25.1 31.4 27.4 33 29.6 33C35 33.1 35.3 27.5 35.3 26.2C34.3 27.3 32.2 28 30.9 28C25.7 28 21.6 24 21.6 18.8C21.6 16.2 21.6 9.7 21.6 9.7C21.6 9.7 24 9.7 26.5 9.7C26.5 9.7 26.5 17.7 26.5 18.8C26.5 21.2 28.5 23.2 30.9 23.2C33.3 23.2 35.3 21.2 35.3 18.8C35.3 17.8 35.3 9.7 35.3 9.7C37.8 9.7 40.2 9.7 40.2 9.7V18.8C40.2 26.9 40.6 35.2 32.7 37.1C26.8 38.5 22.6 34.8 22.3 34.6L24.9 31.3Z" fill="white"/>
</g>
<defs>
<clipPath id="clip0_18_83">
<rect width="99" height="37.7" fill="white"/>
</clipPath>
</defs>
</svg>
