<svg width="75" height="75" viewBox="0 0 75 75" fill="none" xmlns="http://www.w3.org/2000/svg">
<path d="M4.6875 75C3.36806 75 2.25694 74.5486 1.35417 73.6458C0.451389 72.743 0 71.6319 0 70.3125V56.25C0 55.1389 0.347222 54.1667 1.04167 53.3333C1.73611 52.5 2.60417 51.9792 3.64583 51.7708L16.0417 49.0625C16.9444 48.8542 17.8472 48.9062 18.75 49.2187C19.6528 49.5312 20.4514 50.0694 21.1458 50.8333L31.0417 61.0417C37.1528 57.7083 42.6215 53.6458 47.4479 48.8542C52.2743 44.0625 56.6319 38.4375 60.5208 31.9792L50.1042 21.4583C49.5486 20.9028 49.184 20.2257 49.0104 19.4271C48.8368 18.6285 48.8194 17.7431 48.9583 16.7708L51.7708 3.64583C51.9792 2.53472 52.4479 1.64931 53.1771 0.989583C53.9062 0.329861 54.7569 0 55.7292 0H70.3125C71.6319 0 72.743 0.451389 73.6458 1.35417C74.5486 2.25694 75 3.36806 75 4.6875C75 13.1597 72.9167 21.5799 68.75 29.9479C64.5833 38.316 59.1667 45.8333 52.5 52.5C45.8333 59.1667 38.316 64.5833 29.9479 68.75C21.5799 72.9167 13.1597 75 4.6875 75ZM63.6458 26.25C65.3819 22.0833 66.6667 18.3854 67.5 15.1562C68.3333 11.9271 68.75 8.95833 68.75 6.25H57.6042L55.2083 17.7083L63.6458 26.25ZM25.2083 64.0625L16.9792 55.4167L6.25 57.6042V68.75C9.375 68.6111 12.6042 68.125 15.9375 67.2917C19.2708 66.4583 22.3611 65.3819 25.2083 64.0625Z" fill="white"/>
</svg>
