<svg width="82" height="75" viewBox="0 0 82 75" fill="none" xmlns="http://www.w3.org/2000/svg">
<path fill-rule="evenodd" clip-rule="evenodd" d="M0 32.0407C0 14.3453 18.1937 0 40.637 0C63.0804 0 81.274 14.3453 81.274 32.0407C81.274 49.7366 63.0804 64.0815 40.637 64.0815C38.1738 64.0815 35.7617 63.9091 33.4193 63.5774C31.0744 65.2299 17.5271 74.7459 16.2486 74.9245C16.2486 74.9245 15.7242 75.1285 15.2783 74.8659C14.8325 74.6033 14.9134 73.9148 14.9134 73.9148C15.0478 72.9986 18.4254 61.3349 19.0478 59.1882C7.60616 53.5197 0 43.4812 0 32.0407ZM15.825 40.9867C15.825 42.2215 16.8765 43.2257 18.1694 43.2257C19.4624 43.2257 20.5139 42.2215 20.5139 40.9867V27.0588H24.172C25.4403 27.0588 26.4727 26.0288 26.4727 24.7632C26.4727 23.4976 25.4407 22.4676 24.172 22.4676H12.1669C10.8985 22.4676 9.8662 23.4976 9.8662 24.7632C9.8662 26.0288 10.8981 27.0588 12.1669 27.0588H15.825V40.9867ZM36.7761 42.1597C37.0016 42.7982 37.7494 43.1952 38.7271 43.1952C39.2413 43.1956 39.7495 43.0854 40.2174 42.8721C40.8637 42.5747 41.4849 41.7545 40.7714 39.5383L35.1659 24.7843C34.7701 23.6593 33.5701 22.5024 32.0388 22.468C30.5118 22.5027 29.3118 23.6593 28.9168 24.7819L23.3088 39.5426C22.5969 41.7538 23.2182 42.5735 23.8645 42.8717C24.3322 43.0854 24.8405 43.1957 25.3548 43.1952C26.3324 43.1952 27.0799 42.7986 27.3046 42.1613L28.4662 39.1202L35.6152 39.1206L36.7761 42.1597ZM32.0407 28.3154L34.3824 34.9678H29.699L32.0407 28.3154ZM42.2977 40.7347C42.2977 41.9194 43.3054 42.8838 44.5444 42.8838H52.0662C53.3052 42.8838 54.3129 41.9194 54.3129 40.7347C54.3129 39.55 53.3052 38.5856 52.0662 38.5856H47.0842V24.812C47.0842 23.5191 46.0105 22.4676 44.691 22.4676C43.3714 22.4676 42.2977 23.5191 42.2977 24.812V40.7347ZM55.2249 40.8508C55.2249 42.1437 56.2764 43.1952 57.5694 43.1952C58.1912 43.1944 58.7873 42.947 59.2269 42.5072C59.6666 42.0675 59.9139 41.4714 59.9146 40.8496V35.7344L60.7281 34.9209L66.2262 42.2058C66.4439 42.4966 66.7267 42.7324 67.052 42.8942C67.3772 43.056 67.7358 43.1394 68.099 43.1378C68.6083 43.139 69.1038 42.9727 69.5092 42.6646C69.7556 42.4798 69.9629 42.2481 70.119 41.9827C70.2752 41.7173 70.3771 41.4235 70.4189 41.1184C70.4626 40.8135 70.4454 40.503 70.3681 40.2048C70.2908 39.9067 70.1551 39.6268 69.9687 39.3816L64.1979 31.7363L69.5405 26.3945C69.9078 26.0268 70.0918 25.5201 70.0578 24.9672C70.0242 24.4189 69.7792 23.8911 69.3686 23.4808C68.9282 23.0408 68.3405 22.7884 67.7552 22.7884C67.2535 22.7884 66.7912 22.9736 66.4548 23.31L59.9138 29.851V24.812C59.9138 23.5191 58.8623 22.4676 57.5694 22.4676C56.2764 22.4676 55.2249 23.5191 55.2249 24.812V40.8508Z" fill="white"/>
</svg>
