<svg width="94" height="75" viewBox="0 0 94 75" fill="none" xmlns="http://www.w3.org/2000/svg">
<path d="M7.05 75C5.17 75 3.525 74.2969 2.115 72.8906C0.705 71.4844 0 69.8438 0 67.9688V7.03125C0 5.15625 0.705 3.51562 2.115 2.10937C3.525 0.703124 5.17 0 7.05 0H86.95C88.83 0 90.475 0.703124 91.885 2.10937C93.295 3.51562 94 5.15625 94 7.03125V67.9688C94 69.8438 93.295 71.4844 91.885 72.8906C90.475 74.2969 88.83 75 86.95 75H7.05ZM47 39.6094L7.05 13.4766V67.9688H86.95V13.4766L47 39.6094ZM47 32.5781L86.48 7.03125H7.6375L47 32.5781ZM7.05 13.4766V7.03125V67.9688V13.4766Z" fill="white"/>
</svg>
